<?xml version="1.0" standalone="no"?>
<!DOCTYPE svg PUBLIC "-//W3C//DTD SVG 20010904//EN"
 "http://www.w3.org/TR/2001/REC-SVG-20010904/DTD/svg10.dtd">
<svg version="1.0" xmlns="http://www.w3.org/2000/svg"
 width="786.000000pt" height="1280.000000pt" viewBox="0 0 786.000000 1280.000000"
 preserveAspectRatio="xMidYMid meet">
<metadata>
Created by potrace 1.15, written by Peter Selinger 2001-2017
</metadata>
<g transform="translate(0.000000,1280.000000) scale(0.100000,-0.100000)"
fill="#000000" stroke="none">
<path d="M1314 9531 c-128 -23 -210 -67 -269 -142 -69 -88 -155 -278 -241
-534 -42 -126 -85 -247 -95 -267 -38 -76 -302 -364 -492 -536 -26 -24 -47 -47
-47 -52 0 -37 185 -465 238 -550 265 -428 507 -727 729 -901 65 -50 128 -96
141 -102 12 -6 22 -14 22 -19 0 -4 7 -8 15 -8 18 0 22 23 40 270 12 166 45
601 91 1180 10 130 -22 168 263 -320 76 -129 192 -328 259 -442 67 -115 177
-301 243 -415 67 -115 151 -254 186 -311 l65 -103 -72 -74 -71 -74 2 -138 c1
-89 -3 -149 -11 -168 -14 -35 -14 -116 -1 -163 5 -18 24 -50 41 -72 40 -50
100 -203 100 -255 0 -73 28 -161 95 -298 45 -92 75 -141 93 -153 15 -9 38 -27
53 -40 23 -22 41 -25 213 -40 l188 -16 26 25 c29 26 186 137 195 137 3 0 19
-21 35 -47 16 -27 80 -126 141 -221 l112 -172 -85 -248 c-328 -960 -295 -875
-521 -1328 -113 -226 -205 -415 -205 -419 0 -9 3309 1 3317 9 3 2 22 140 44
307 30 236 42 306 56 321 10 11 69 56 133 101 277 195 586 435 693 536 39 37
86 126 193 366 60 137 136 379 188 605 l35 155 -1 265 c-2 187 3 322 15 457
10 106 18 241 18 300 0 94 -3 119 -29 193 -68 197 -111 254 -242 320 -73 36
-80 43 -74 64 7 31 2 33 -101 51 -91 16 -255 72 -315 108 -90 53 -440 336
-440 355 0 4 9 18 19 31 l18 24 188 -28 c250 -37 362 -29 515 35 88 38 139 78
181 143 81 124 81 194 2 357 -43 89 -56 105 -188 235 -78 77 -149 154 -158
170 -9 19 -19 87 -27 185 -15 195 -23 239 -61 320 -43 92 -150 250 -200 295
-24 21 -104 68 -183 106 -116 56 -159 71 -236 85 -185 32 -341 3 -529 -97 -92
-49 -130 -79 -253 -196 -54 -51 -106 -93 -115 -93 -10 0 -106 -5 -213 -10
-219 -11 -275 -24 -370 -89 -102 -68 -121 -146 -70 -281 18 -47 49 -107 68
-135 72 -102 232 -283 329 -372 l100 -92 12 -143 c7 -79 15 -159 18 -178 l5
-36 -94 -37 c-162 -64 -209 -65 -366 -6 -63 23 -87 28 -95 20 -9 -9 -9 -16 0
-30 10 -16 8 -20 -14 -30 -20 -9 -29 -9 -42 2 -28 25 -74 44 -122 51 -39 6
-53 2 -100 -23 -29 -17 -112 -61 -184 -98 -117 -60 -139 -76 -220 -159 -49
-50 -100 -96 -112 -102 -12 -7 -66 -18 -121 -26 -80 -11 -121 -23 -203 -61
-57 -26 -135 -58 -173 -71 -93 -32 -145 -64 -224 -138 -74 -70 -102 -88 -120
-77 -6 4 -86 144 -178 311 -91 168 -174 319 -184 335 -27 45 -388 703 -507
925 -58 107 -143 261 -189 341 -64 112 -84 155 -84 184 0 20 16 89 36 152 32
101 35 119 24 137 -8 12 -67 111 -133 221 -226 377 -286 466 -310 464 -7 -1
-53 -9 -103 -18z m2402 -4088 c-3 -10 -10 -38 -16 -63 -6 -25 -18 -69 -27 -98
-17 -61 -14 -62 -72 40 l-32 57 68 40 c76 46 87 49 79 24z"/>
</g>
</svg>
