<?xml version="1.0" standalone="no"?>
<!DOCTYPE svg PUBLIC "-//W3C//DTD SVG 20010904//EN"
 "http://www.w3.org/TR/2001/REC-SVG-20010904/DTD/svg10.dtd">
<svg version="1.0" xmlns="http://www.w3.org/2000/svg"
 width="1280.000000pt" height="1138.000000pt" viewBox="0 0 1280.000000 1138.000000"
 preserveAspectRatio="xMidYMid meet">
<metadata>
Created by potrace 1.15, written by Peter Selinger 2001-2017
</metadata>
<g transform="translate(0.000000,1138.000000) scale(0.100000,-0.100000)"
fill="#000000" stroke="none">
<path d="M4545 11365 c-170 -28 -322 -82 -491 -176 -52 -29 -93 -53 -91 -55 1
-1 35 13 75 32 467 223 995 179 1515 -126 177 -103 191 -119 37 -42 -249 124
-523 209 -861 266 l-36 6 -94 -120 c-65 -83 -102 -122 -119 -126 -14 -2 -81
-23 -150 -44 -69 -22 -165 -45 -215 -51 -101 -11 -104 -12 -199 -34 -470 -112
-798 -422 -961 -909 -39 -114 -85 -322 -84 -371 0 -16 11 17 24 75 122 559
457 938 985 1114 58 19 123 38 145 42 l40 7 -62 -47 c-127 -96 -284 -289 -364
-448 -107 -212 -180 -455 -214 -706 -7 -57 -15 -105 -17 -106 -1 -1 -38 -19
-82 -41 -43 -21 -99 -57 -125 -80 -44 -40 -50 -42 -126 -49 -140 -11 -183 -32
-171 -81 9 -34 57 -57 133 -63 56 -4 63 -7 63 -26 0 -29 28 -71 86 -131 60
-61 96 -127 140 -254 42 -118 74 -165 145 -214 l56 -38 -24 -107 c-78 -351
-183 -764 -228 -897 -64 -190 -201 -325 -557 -547 -75 -47 -167 -112 -205
-143 -46 -38 -115 -80 -211 -126 -211 -102 -395 -227 -704 -480 -301 -246
-318 -271 -353 -522 -23 -169 2 -107 -670 -1677 -243 -569 -473 -1111 -510
-1204 l-68 -169 7 -75 c11 -140 102 -447 226 -772 28 -74 83 -254 121 -400 37
-146 126 -476 196 -735 l128 -470 125 -7 c69 -3 305 -11 525 -17 393 -12 1358
-40 2030 -61 187 -6 639 -19 1005 -30 366 -11 816 -24 1000 -30 184 -6 634
-19 1000 -30 702 -21 1044 -31 1825 -55 264 -8 487 -15 496 -15 22 0 45 55 65
152 31 151 6 423 -57 643 -74 253 -263 687 -419 960 -89 156 -131 247 -174
377 -58 175 -111 442 -104 528 3 41 6 45 31 48 19 2 42 -7 75 -31 56 -41 143
-86 247 -127 75 -30 78 -30 264 -30 154 0 202 4 265 20 88 22 340 124 434 176
85 46 118 53 320 64 134 7 180 13 203 27 57 34 99 122 139 293 12 52 32 119
45 150 13 30 53 135 89 233 89 241 88 280 -19 600 l-46 137 45 58 c43 56 96
108 150 145 15 10 40 43 57 72 38 68 96 120 149 136 l42 13 -7 157 c-6 134 -5
158 8 165 8 5 51 44 95 86 l81 77 -54 120 c-30 66 -55 124 -55 128 0 9 322
213 335 213 5 0 78 -69 164 -153 86 -84 217 -208 291 -276 148 -135 188 -184
222 -272 13 -33 27 -59 31 -59 5 0 65 29 135 65 387 196 726 497 1045 926 l27
35 -72 17 c-131 32 -313 134 -669 376 -917 625 -1058 712 -1293 806 -286 113
-623 118 -855 14 l-64 -29 79 -48 c131 -80 258 -168 320 -222 35 -31 105 -75
172 -108 61 -31 112 -61 112 -67 0 -7 -17 -39 -38 -71 -43 -67 -143 -169 -244
-251 -40 -33 -65 -60 -61 -67 4 -6 38 -57 75 -114 l69 -103 -168 -174 c-92
-95 -169 -168 -170 -162 -1 7 -5 34 -8 61 -9 69 -47 106 -108 106 -91 0 -86 5
-343 -359 l-238 -339 -47 -4 c-26 -3 -72 -17 -102 -31 -30 -15 -57 -27 -60
-27 -12 0 -125 177 -262 410 -334 570 -646 1068 -783 1248 -91 120 -292 251
-600 391 -144 66 -221 93 -347 125 -125 30 -252 76 -422 151 l-132 58 22 40
c30 54 98 114 163 144 71 32 211 56 295 50 l67 -4 5 41 c3 22 4 42 2 45 -3 2
-27 6 -55 9 -27 2 -50 7 -50 11 0 3 16 31 35 61 39 63 38 65 -53 75 -52 6 -73
3 -123 -15 l-59 -23 -97 47 c-73 35 -120 51 -192 63 -53 8 -97 16 -98 17 -6 5
-33 388 -28 396 4 6 26 10 49 10 69 0 207 27 294 58 165 59 281 156 302 255
30 148 -87 367 -333 624 -66 67 -137 137 -159 154 l-39 32 -32 -31 -32 -30
-43 37 -43 38 15 82 c9 46 16 100 17 120 1 85 3 84 177 -86 l162 -159 -19 -57
c-24 -68 -19 -73 61 -64 57 7 126 44 158 84 28 35 23 90 -15 186 -62 154 -103
155 -145 2 -11 -44 -23 -86 -26 -94 -3 -9 -11 -4 -26 15 -37 51 -171 184 -244
244 l-71 59 -11 108 c-22 212 -73 353 -195 537 -63 96 -111 152 -231 272 -311
311 -622 491 -966 560 -109 22 -326 26 -435 9z m1678 -2961 l107 -7 0 -194 0
-194 -107 6 c-184 10 -233 16 -233 28 0 7 10 94 22 195 l23 184 40 -6 c22 -3
88 -8 148 -12z"/>
</g>
</svg>
