<?xml version="1.0" encoding="utf-8"?>
<!-- Svg Vector Icons : http://www.onlinewebfonts.com/icon -->
<!DOCTYPE svg PUBLIC "-//W3C//DTD SVG 1.1//EN" "http://www.w3.org/Graphics/SVG/1.1/DTD/svg11.dtd">
<svg version="1.1" xmlns="http://www.w3.org/2000/svg" xmlns:xlink="http://www.w3.org/1999/xlink" x="0px" y="0px" viewBox="0 0 1000 1000" enable-background="new 0 0 1000 1000" xml:space="preserve">
<metadata> Svg Vector Icons : http://www.onlinewebfonts.com/icon </metadata>
<g><g transform="translate(0.000000,511.000000) scale(0.100000,-0.100000)"><path d="M4413.5,4610.9c-104.7-36.8-205.5-122.1-273.4-232.7c-52.4-83.4-58.2-114.4-64-271.5l-7.8-178.4l-170.6-52.3c-93.1-29.1-257.9-95-364.5-147.4c-655.4-314.1-1122.7-798.9-1475.6-1531.8c-213.3-446-356.8-921-420.8-1405.8c-17.4-128-34.9-242.4-36.8-254c-3.9-11.6-83.4-64-178.4-114.4C523.9-62,56.6-721.2,103.2-1438.6c27.2-413,168.7-800.8,407.2-1111c374.2-484.7,1062.6-890,1861.4-1091.6c129.9-33,294.7-64,366.5-69.8c124.1-11.6,131.8-9.7,188.1,48.5c112.5,110.5,65.9,310.2-79.5,341.3c-23.3,5.8-135.7,29.1-248.2,50.4c-112.5,23.3-319.9,79.5-461.5,126C1154.1-2817.2,595.7-2245.2,525.9-1491c-38.8,420.8,79.5,725.2,414.9,1060.6C1142.5-226.8,1392.6-52.3,1697,97c273.4,131.8,292.8,155.1,308.3,349c36.8,413,155.1,932.6,294.7,1285.5c378.1,965.6,1012.1,1568.6,1886.6,1795.5c145.4,38.8,197.8,62,240.4,106.6c52.4,56.2,52.4,60.1,52.4,318v261.8h542.9h542.9v-261.8c0-257.9,0-261.8,54.3-318c40.7-42.7,100.8-69.8,259.8-116.3c731-211.3,1303-707.7,1675.3-1456.2c242.4-488.6,374.2-981.1,444-1653.9c15.5-145.4,50.4-180.3,290.8-304.4C8917.7-221,9326.8-632,9452.9-1068.3c54.3-186.2,33-529.4-46.5-765.9c-232.7-692.2-895.8-1180.8-1977.8-1458.1c-162.9-42.7-314.1-85.3-335.4-97c-21.3-11.6-50.4-50.4-65.9-89.2c-56.2-131.8,40.7-277.3,184.2-277.3c93.1,0,409.1,77.6,668.9,164.8c604.9,201.7,1091.6,488.6,1432.9,841.5c352.9,366.4,525.5,734.9,577.8,1227.4c69.8,668.9-269.5,1252.6-1027.6,1762.5c-110.5,75.6-259.8,164.8-331.6,201.7l-129.9,65.9l-13.6,141.5c-23.3,248.2-126,709.7-226.8,1012.1c-374.2,1124.6-1087.8,1902.1-2028.2,2212.4l-160.9,52.4v170.6c0,149.3-7.7,184.2-54.3,273.4c-58.2,114.4-184.2,215.2-310.2,250.1C5493.5,4651.7,4506.6,4643.9,4413.5,4610.9z"/><path d="M4262.3,2916.3l-64-56.2l-5.8-469.2c-5.8-525.5,3.9-612.7,102.8-810.5c128-255.9,533.2-575.9,727.1-575.9c73.7,0,112.4,17.4,252.1,110.5c182.3,120.2,391.7,327.7,471.2,461.5c93.1,160.9,110.5,277.3,110.5,760.1c0,475-11.6,542.9-98.9,605c-40.7,27.1-129.9,31-738.7,31h-694.1L4262.3,2916.3z M5429.5,2216.3c0-382-7.8-414.9-129.9-556.5c-58.2-67.9-254-219.1-283.1-219.1c-33,0-246.3,160.9-290.8,221c-106.6,137.7-110.5,159-110.5,544.8v358.7h407.2h407.2V2216.3z"/><path d="M4527.9,643.8c-764-62-1440.6-240.4-2057.3-542.9c-254-126-316-174.5-335.4-269.5c-17.5-87.3,7.8-465.4,46.5-670.9l33-176.5l-98.9-129.9c-160.9-213.3-193.9-411.1-100.8-622.4c50.4-114.4,201.7-273.4,327.7-343.2c69.8-40.7,100.8-69.8,100.8-96.9c0-71.7,135.7-449.8,215.2-595.3c409.1-758.1,1227.4-1401.9,2010.7-1584.1c630.1-145.4,1456.2,205.5,2127,907.4c331.6,345.1,570.1,746.5,680.6,1144c50.4,174.5,56.2,186.1,116.3,207.5c108.6,38.8,271.5,205.5,339.3,343.2c112.5,228.8,75.6,467.3-104.7,682.5c-81.4,96.9-81.4,96.9-44.6,294.7c15.5,79.5,32.9,211.3,40.7,290.8c9.7,95,27.2,160.9,50.4,192c52.4,65.9,48.5,180.3-9.7,248.2c-52.3,62.1-420.7,252.1-701.9,360.6C6410.6,577.9,5406.2,715.6,4527.9,643.8z M5710.7,207.5c279.2-31,630.2-95,829.9-153.2c77.6-21.3,110.5-40.7,110.5-64c1.9-153.2,118.3-1347.6,135.7-1378.6c27.1-52.4,118.3-98.9,192-98.9c42.6,0,87.3,25.2,155.1,85.3c52.3,46.5,126,95,162.9,106.6c62.1,21.3,77.6,17.4,153.2-29.1c116.3-69.8,131.9-96.9,131.9-215.2c0-145.4-64-215.2-219.1-236.5c-164.8-21.3-203.6-67.9-246.3-296.7c-19.4-98.9-64-255.9-96.9-349c-302.5-833.7-1272-1586.1-2043.7-1586.1c-440.1,0-1033.5,294.7-1477.5,736.8c-383.9,380-601.1,787.2-665.1,1248.7c-25.2,176.4-71.7,224.9-228.8,246.3c-168.7,23.3-236.5,110.5-221,288.9c5.8,65.9,89.2,147.4,190,186.2c112.5,44.6,205.5,15.5,337.4-98.9c102.8-93.1,164.8-108.6,257.9-64c100.8,44.6,106.6,73.7,170.6,796.9c31,376.2,60.1,686.4,64,688.3c13.6,13.6,292.8,83.4,484.7,120.2C4467.8,254.1,5068.9,275.4,5710.7,207.5z M2961.2-240.4c-7.8-62-23.3-236.5-34.9-389.7c-21.3-240.4-27.1-275.3-54.3-263.7c-17.5,7.7-85.3,17.4-149.3,23.3l-120.2,7.8l-21.3,139.6c-11.6,75.6-27.1,195.8-33,267.6l-13.6,131.9l201.7,96.9c110.5,52.4,209.4,97,219.1,97C2965.1-129.8,2967-180.2,2961.2-240.4z M7261.8-205.4l166.7-77.6L7415-440.1c-7.8-85.3-23.3-213.3-34.9-285c-21.3-129.9-21.3-131.8-89.2-143.5c-36.8-5.8-85.3-17.5-108.6-23.3c-38.8-13.6-40.7-3.9-64,261.8c-11.6,153.2-27.1,327.7-34.9,389.7c-5.8,60.1-5.8,110.5,1.9,110.5C7091.2-129.8,7170.7-164.7,7261.8-205.4z"/><path d="M4101.3-1180.8c-71.7-38.8-106.6-100.8-106.6-186.1c0-67.9,11.6-95,56.2-141.5c48.5-48.5,71.7-56.2,160.9-56.2c213.3,2,306.4,197.8,162.9,341.3c-54.3,54.3-79.5,65.9-149.3,65.9C4178.9-1157.5,4122.7-1169.1,4101.3-1180.8z"/><path d="M5670-1223.4c-143.5-143.5-50.4-339.3,162.9-341.3c89.2,0,112.5,7.8,160.9,56.2c40.7,40.7,56.2,75.6,56.2,126c0,145.4-81.4,224.9-234.6,224.9C5751.4-1157.5,5724.2-1169.1,5670-1223.4z"/><path d="M4601.6-2417.8c-25.2-9.7-62-46.5-83.4-81.4c-54.3-87.2-40.7-182.2,38.8-252.1l58.2-54.3H5001c356.8,0,387.8,1.9,434.3,38.8c73.7,58.2,100.8,155.1,64,238.5c-48.5,118.3-96.9,129.9-500.2,128C4803.2-2400.4,4624.9-2408.1,4601.6-2417.8z"/></g></g>
</svg>